# xmcd
#
# Track frame offsets:
#	150
#	10702
#	23442
#	36179
#	48371
#	70747
#	88647
#	97878
#	107044
#	126668
#	139318
#	154149
#	163089
#	174814
#	187604
#	197104
#	210391
#
# Disc length: 2979 seconds
#
# Revision: 1
# Processed by: cddbd v1.5.2PL0 Copyright (c) Steve Scherf et al.
# Submitted via: audiograbber 1.83.01
#
DISCID=d40ba111
DTITLE=Shanty-Chor Pellworm - Ich Liebe Die Nordsee
DYEAR=1900
DGENRE=Shanties
TTITLE0=Shanty-Chor Pellworm - Allzeit Gute Fahrt
TTITLE1=Shanty-Chor Pellworm - Ich Liebe Die Nordsee
TTITLE2=Shanty-Chor Pellworm - Molly Mallone
TTITLE3=Shanty-Chor Pellworm - Und Doch Segeln Wir Weiter
TTITLE4=Shanty-Chor Pellworm - Das Grogleed
TTITLE5=Shanty-Chor Pellworm - Sailing
TTITLE6=Shanty-Chor Pellworm - Wir Sind Auf Dem Richtigen Dampfer
TTITLE7=Shanty-Chor Pellworm - My Bonny
TTITLE8=Shanty-Chor Pellworm - Keine Frau Ist So Schön Wie Die Freiheit
TTITLE9=Shanty-Chor Pellworm - Banana Boat
TTITLE10=Shanty-Chor Pellworm - Bei Windstärke Vier
TTITLE11=Shanty-Chor Pellworm - So Handy My Hope
TTITLE12=Shanty-Chor Pellworm - Windjammer
TTITLE13=Shanty-Chor Pellworm - Rolling Sea
TTITLE14=Shanty-Chor Pellworm - Am Unteren HAfen
TTITLE15=Shanty-Chor Pellworm - Island In The Sand
TTITLE16=Shanty-Chor Pellworm - In der Alten Hafenkneipe
EXTD=
EXTT0=
EXTT1=
EXTT2=
EXTT3=
EXTT4=
EXTT5=
EXTT6=
EXTT7=
EXTT8=
EXTT9=
EXTT10=
EXTT11=
EXTT12=
EXTT13=
EXTT14=
EXTT15=
EXTT16=
PLAYORDER=
